<?xml version="1.0" encoding="UTF-8"?>
<svg xmlns="http://www.w3.org/2000/svg" xmlns:svg="http://www.w3.org/2000/svg" width="720" height="720">
  <defs>
    <linearGradient y2="-0.02587" x2="0.74012" y1="1.05976" x1="0.2444" id="SVGID_1_">
      <stop offset="0" stop-color="#004e73"/>
      <stop offset="1" stop-color="#00a1b0"/>
    </linearGradient>
    <linearGradient y2="0.0583" x2="1.05869" y1="1.27423" x1="-0.4793" id="SVGID_2_">
      <stop offset="0.3077" stop-color="#d3d3d3"/>
      <stop offset="0.6752" stop-color="#ffffff"/>
    </linearGradient>
    <linearGradient y2="-0.30082" x2="1.66913" y1="0.91511" x1="0.07988" id="SVGID_3_">
      <stop offset="0.3077" stop-color="#d3d3d3"/>
      <stop offset="0.6752" stop-color="#ffffff"/>
    </linearGradient>
  </defs>
  <g class="layer">
    <title>Layer 1</title>
    <g id="Layer_2"/>
    <path d="m541.52899,552.09698l0,0l0,0z" fill="#c90012" id="svg_1"/>
    <path d="m541.52899,523.216l0,0l0,0z" fill="#c90012" id="svg_2"/>
    <path d="m543.52899,499.306l0,0l0,0z" fill="#c90012" id="svg_3"/>
    <path d="m543.52899,540.75299l0,0l0,0z" fill="#c90012" id="svg_4"/>
    <path d="m541.52899,593.54401l0,0l0,0z" fill="#c90012" id="svg_5"/>
    <path d="m541.52899,564.642l0,0l0,0z" fill="#c90012" id="svg_6"/>
    <path d="m543.52899,457.84198l0,0l0,0z" fill="#c90012" id="svg_7"/>
    <path d="m544.65399,367.951c0,-6.11 -4.99899,-11.108 -11.10501,-11.108l-350.86099,0c-6.112,0 -14.644,3.534 -18.96301,7.855l-25.745,25.74503c-4.322,4.32098 -7.855,12.85297 -7.855,18.96298l0,226.46802c0,6.11096 4.999,11.10901 11.106,11.10901l350.85999,0c6.10693,0 14.64398,-3.53503 18.96298,-7.854l25.741,-25.73602c4.32001,-4.31601 7.85394,-12.853 7.85394,-18.965l0.005,-226.47697l0.00006,-0.00003l0.00003,0l0.00001,-0.00002z" transform="translate(0,1) translate(0,1) translate(0,1) translate(0,1) translate(0,1) translate(0,1) translate(0,1) translate(0,1) translate(0,1) translate(0,1) translate(0,1) translate(0,1) translate(0,1) translate(0,1) translate(0,1) translate(0,1) translate(0,1) translate(0,1) translate(0,1) translate(0,1) translate(0,1) translate(0,1) translate(0,1) translate(0,1) translate(0,1) translate(0,1) translate(0,1) translate(0,1) translate(0,1) translate(0,1) translate(0,1) translate(0,1) translate(0,1) translate(0,1) translate(0,1) translate(0,1) translate(0,1) translate(0,1) translate(0,1) translate(0,1) translate(0,1) translate(0,1) translate(0,1) translate(0,1) translate(0,1) translate(0,1) translate(0,1) translate(0,1) translate(14,-196) " fill="url(#SVGID_1_)" id="svg_8"/>
    <path d="m508.22,365.789l-25.729,-25.729c-4.319,-4.31799 -12.854,-7.854 -18.96298,-7.853l-19.24802,0c-6.112,0.00101 -11.10999,0.00101 -11.10999,0.00101s3.53198,-3.534 7.85397,-7.85501l67.19601,-67.19299c4.32001,-4.32101 2.854,-7.85501 -3.25299,-7.85501l-102.13501,0c-6.11099,0 -14.64304,3.534 -18.96301,7.85501l-232.72702,232.69998c-1.825,1.82098 -3.517,3.51398 -4.871,4.86603c2.012,2.01099 4.786,3.25897 7.836,3.25897c0.005,0 0.01,0 0.016,0l99.953,0l167.98799,0c6.11099,0 11.12204,-0.013 11.13306,-0.02301c0.01495,-0.01599 3.55899,-3.56201 7.87991,-7.88l67.14401,-67.13199c4.32004,-4.31601 7.854,-12.853 7.854,-18.96301l0,-19.23499c-0.00201,-6.11197 -3.535,-14.64798 -7.85501,-18.96298l0.00003,0l0.00003,0l0.00002,-0.00001z" opacity="0.2" id="svg_9"/>
    <path d="m402.82401,373.64899c-6.108,0 -14.64301,-3.53601 -18.95999,-7.85699l-25.71001,-25.71799c-4.32101,-4.32101 -7.85698,-12.85501 -7.86499,-18.966l-0.01202,-19.246c-0.008,-6.11002 3.52502,-14.64301 7.84602,-18.96402l25.741,-25.737c4.32098,-4.32098 12.85199,-7.85498 18.96298,-7.85498l102.14001,0c6.10699,0 7.573,3.534 3.25299,7.85498l-25.741,25.737c-4.32007,4.32101 -12.85199,7.85501 -18.96298,7.85501l-60.68802,0c-6.112,0 -11.11005,4.99799 -11.11005,11.108l0,19.246c0,6.10999 4.99805,11.108 11.10605,11.10599l60.702,-0.00699c6.10696,-0.00201 14.64401,3.53299 18.96301,7.853l25.72894,25.729c4.32007,4.314 7.854,12.85098 7.854,18.96298l0,19.23502c0,6.10901 -3.53201,14.646 -7.854,18.96301l-25.74002,25.73999c-4.32092,4.31601 -12.853,7.854 -18.96399,7.854l-60.68796,0c-6.112,0 -14.64301,-3.53601 -18.96301,-7.854l-25.741,-25.73999c-4.31998,-4.31601 -2.85799,-7.854 3.25302,-7.854l102.14001,0c6.112,0 11.10999,-4.99802 11.10999,-11.108l0,-19.237c0,-6.112 0,-11.10999 0.00302,-11.10999c0.004,0 -4.99402,0 -11.103,0l-60.70102,0.00897l0.00002,0z" fill="url(#SVGID_2_)" id="svg_10"/>
    <g opacity="0.2" id="svg_11">
      <path d="m144.90644,344.82623c0,-6.10901 0,-11.23801 0,-11.39301c0,-0.155 3.532,-3.81799 7.854,-8.138l67.185,-67.18597c4.321,-4.32101 12.855,-7.85501 18.96301,-7.85501l102.14998,0c6.108,0 7.57399,3.534 3.25299,7.85501l-67.19699,67.18198c-4.32001,4.32101 -7.853,7.85501 -7.853,7.85501s4.99799,0.00198 11.11,0.00601l19.228,0.00699c6.108,0.004 10.75,4.99301 10.31799,11.086l-1.114,15.59299c-0.433,6.09201 -1.707,11.99701 -2.83299,13.12201c-1.125,1.125 -5.57599,5.58002 -9.89601,9.896l-25.20099,25.20102c-4.32001,4.315 -7.88501,7.88498 -7.92201,7.918c-0.034,0.034 4.933,0.064 11.041,0.06198l17.979,0c6.108,-0.004 14.784,3.379 19.28101,7.51901l26.836,24.694c4.49699,4.13699 8.18103,7.62299 8.05801,7.75c-0.12602,0.12601 -3.76602,3.76199 -8.08702,8.08301l-34.827,34.84998l-147.212,0.00201c-6.107,0 -11.10499,-4.99799 -11.10499,-11.10999l-0.009,-142.99902l0.00001,0l0,-0.00001z" id="svg_12"/>
    </g>
    <path d="m237.01,415.09698c-6.107,0 -11.104,-4.99802 -11.104,-11.108l0,-19.23502c0,-6.112 4.998,-11.10999 11.104,-11.10999l60.68999,0c6.10799,0 11.10599,-4.99802 11.10599,-11.108l0,-19.20599c0,-6.112 -4.998,-11.10999 -11.10599,-11.10999l-60.68999,0c-6.107,0 -11.104,-4.99802 -11.104,-11.108l0,-19.246c0,-6.11002 4.998,-11.108 11.104,-11.108l60.68999,0c6.10799,0 14.64301,-3.534 18.96399,-7.854l25.74898,-25.741c4.321,-4.319 2.85501,-7.853 -3.25299,-7.853l-102.14999,0c-6.10699,0 -14.64301,3.534 -18.96301,7.85498l-25.737,25.73502c-4.32,4.32098 -7.857,12.854 -7.857,18.96399l0,102.125c0,6.11002 3.537,14.646 7.857,18.96301l25.737,25.73999c4.32101,4.31601 12.855,7.854 18.96301,7.854l102.14297,0c6.112,0 7.57402,-3.53601 3.25302,-7.85501l-25.74101,-25.74399c-4.32001,-4.32101 -12.85399,-7.85699 -18.96399,-7.85699l-60.69099,0.00699l0.00002,0z" fill="url(#SVGID_3_)" id="svg_13"/>
    <g id="Layer_3"/>
  </g>
</svg>
